# xmcd
#
# Track frame offsets:
#	150
#	106037
#	203870
#
# Disc length: 4085 seconds
#
# Revision: 1
# Processed by: cddbd v1.5.2PL0 Copyright (c) Steve Scherf et al.
# Submitted via: EZCDAudioConverter 8.3.2.1
#
DISCID=1d0ff303
DTITLE=Stuart Mclean - Dave and Morley Stories - Disc 4
DYEAR=2019
DGENRE=Comedy
TTITLE0=The Mermaid and Other Mysteries
TTITLE1=Dave's Christmas Tree
TTITLE2=Dave and Morley, Dancing
EXTD=
EXTT0=
EXTT1=
EXTT2=
PLAYORDER=
